<?xml version="1.0" encoding="utf-8"?>
<!-- Generator: Adobe Illustrator 19.0.0, SVG Export Plug-In . SVG Version: 6.00 Build 0)  -->
<svg version="1.1" id="Layer_1" xmlns="http://www.w3.org/2000/svg" xmlns:xlink="http://www.w3.org/1999/xlink" x="0px" y="0px"
	 viewBox="0 0 946.2 946.1" style="enable-background:new 0 0 946.2 946.1;" xml:space="preserve">
<style type="text/css">
	.st0{clip-path:url(#SVGID_2_);}
</style>
<g>
	<defs>
		<rect id="SVGID_1_" width="946.2" height="946.1"/>
	</defs>
	<clipPath id="SVGID_2_">
		<use xlink:href="#SVGID_1_"  style="overflow:visible;"/>
	</clipPath>
	<path class="st0" d="M591.4,200.7c10.3,10.4,20,21.3,28.9,32.9c-3.1-4-6.3-8.1-9.4-12.1c17.5,22.9,32.1,47.9,43.3,74.4
		c-2-4.8-4-9.6-6-14.3c11.4,27.3,19.2,55.9,23.2,85.2c-0.7-5.3-1.4-10.6-2.1-16c4,30,4,60.4,0,90.4c0.7-5.3,1.4-10.6,2.1-16
		c-4,29.3-11.8,57.9-23.2,85.2c2-4.8,4-9.6,6-14.3c-11.2,26.6-25.8,51.6-43.3,74.4c3.1-4,6.3-8.1,9.4-12.1
		c-17.9,23.1-38.7,43.9-61.8,61.8c4-3.1,8.1-6.3,12.1-9.4c-22.9,17.5-47.9,32.1-74.4,43.3c4.8-2,9.6-4,14.3-6
		c-27.3,11.4-55.9,19.2-85.2,23.2c5.3-0.7,10.6-1.4,16-2.1c-30,4-60.4,4-90.4,0c5.3,0.7,10.6,1.4,16,2.1
		c-29.3-4-57.9-11.8-85.2-23.2c4.8,2,9.6,4,14.3,6c-26.6-11.2-51.6-25.8-74.4-43.3c4,3.1,8.1,6.3,12.1,9.4
		c-23.1-17.9-43.9-38.7-61.8-61.8c3.1,4,6.3,8.1,9.4,12.1c-17.5-22.9-32.1-47.9-43.3-74.4c2,4.8,4,9.6,6,14.3
		c-11.4-27.3-19.2-55.9-23.2-85.2c0.7,5.3,1.4,10.6,2.1,16c-4-30-4-60.4,0-90.4c-0.7,5.3-1.4,10.6-2.1,16
		c4-29.3,11.8-57.9,23.2-85.2c-2,4.8-4,9.6-6,14.3c11.2-26.6,25.8-51.6,43.3-74.4c-3.1,4-6.3,8.1-9.4,12.1
		c17.9-23.1,38.7-43.9,61.8-61.8c-4,3.1-8.1,6.3-12.1,9.4c22.9-17.5,47.9-32.1,74.4-43.3c-4.8,2-9.6,4-14.3,6
		c27.3-11.4,55.9-19.2,85.2-23.2c-5.3,0.7-10.6,1.4-16,2.1c30-4,60.4-4,90.4,0c-5.3-0.7-10.6-1.4-16-2.1c29.3,4,57.9,11.8,85.2,23.2
		c-4.8-2-9.6-4-14.3-6c26.6,11.2,51.6,25.8,74.4,43.3c-4-3.1-8.1-6.3-12.1-9.4C570.1,180.7,581,190.4,591.4,200.7
		c10.9,10.9,27,17.6,42.4,17.6c14.7,0,32.3-6.5,42.4-17.6c10.5-11.4,18.3-26.4,17.6-42.4c-0.7-15.9-6.1-31-17.6-42.4
		c-28.6-28.4-61.9-53.4-97.9-71.6C543.5,26.5,506.1,13,467.5,6.5C428.7,0.1,390-2.3,351,2.8c-21.8,2.9-43.3,6.2-64.5,12.4
		c-21.2,6.1-41.8,14.5-61.8,23.8c-36.3,16.8-69.7,40.5-99.1,67.6c-29.7,27.5-55.6,60.5-75.3,95.9c-18.8,33.9-33.4,71.2-41.2,109.2
		C1.2,350-2.2,389.8,1.6,428.8c2.1,21.7,5.3,43.5,10.6,64.8c4.8,19.2,11.5,37.6,19.2,55.8c7.8,18.4,16.3,36.3,26.8,53.4
		c11.7,19,25.4,36.9,39.9,53.9c11.8,13.8,24.7,26.6,38.5,38.3c17.2,14.6,35.3,28.3,54.6,40c19.1,11.7,39.3,20.8,60,29.3
		c15.8,6.5,32.1,11.9,48.7,16c37.9,9.3,77.9,13.6,116.9,11.2c38.7-2.4,77.7-9.4,114.1-23.1c20.7-7.8,41.3-16.8,60.6-27.7
		c19.7-11.1,37.7-24.4,55.4-38.4c32-25.3,59.1-56.6,81.6-90.5c21.7-32.7,38.2-69.8,48.9-107.5c6-21.2,9.4-42.7,12.2-64.5
		c2.2-17,3.2-34.2,2.8-51.4c-0.9-38.8-7.1-78.5-19.4-115.3c-12.6-37.7-30.2-74.3-53.9-106.5c-13.1-17.8-27-35.1-42.6-50.8
		c-10.8-10.9-27.1-17.6-42.4-17.6c-14.7,0-32.3,6.5-42.4,17.6c-10.5,11.4-18.3,26.4-17.6,42.4C574.5,174.2,579.9,189.2,591.4,200.7"
		/>
	<path class="st0" d="M591.4,676.1c8.3,8.3,16.7,16.7,25,25l60.2,60.2l73.2,73.2l63,63c10.2,10.2,20.3,20.6,30.6,30.6
		c0.1,0.1,0.3,0.3,0.4,0.4c10.9,10.9,27,17.6,42.4,17.6c14.7,0,32.3-6.5,42.4-17.6c10.5-11.4,18.3-26.4,17.6-42.4
		c-0.7-15.9-6.1-30.9-17.6-42.4l-25-25c-20.1-20.1-40.1-40.1-60.2-60.2c-24.4-24.4-48.8-48.8-73.2-73.2l-63-63
		c-10.2-10.2-20.3-20.6-30.6-30.6c-0.1-0.1-0.3-0.3-0.4-0.4c-10.9-10.9-27-17.6-42.4-17.6c-14.7,0-32.3,6.5-42.4,17.6
		c-10.5,11.4-18.3,26.4-17.6,42.4C574.5,649.6,579.9,664.7,591.4,676.1"/>
</g>
</svg>
